<svg xmlns="http://www.w3.org/2000/svg" viewBox="0 0 64 64">
  <defs>
    <linearGradient id="bottle" x1="0%" y1="0%" x2="100%" y2="100%">
      <stop offset="0%" style="stop-color:#8b4049"/>
      <stop offset="100%" style="stop-color:#5a252c"/>
    </linearGradient>
    <linearGradient id="wine" x1="0%" y1="0%" x2="0%" y2="100%">
      <stop offset="0%" style="stop-color:#722f37"/>
      <stop offset="100%" style="stop-color:#4a1f24"/>
    </linearGradient>
  </defs>
  <!-- Bottle neck -->
  <rect x="26" y="4" width="12" height="14" rx="2" fill="url(#bottle)"/>
  <!-- Bottle neck ring -->
  <rect x="24" y="16" width="16" height="4" rx="1" fill="url(#bottle)"/>
  <!-- Bottle body -->
  <path d="M24 20 L24 24 Q18 28 18 36 L18 56 Q18 60 22 60 L42 60 Q46 60 46 56 L46 36 Q46 28 40 24 L40 20 Z" fill="url(#bottle)"/>
  <!-- Wine level -->
  <path d="M20 40 L20 56 Q20 58 22 58 L42 58 Q44 58 44 56 L44 40 Q44 38 32 42 Q20 38 20 40 Z" fill="url(#wine)"/>
  <!-- Highlight -->
  <ellipse cx="38" cy="48" rx="2" ry="6" fill="rgba(255,255,255,0.15)"/>
</svg>
