<svg xmlns="http://www.w3.org/2000/svg" viewBox="0 0 420 110" fill="none">
  <rect width="420" height="110" fill="white"/>
  
  <g transform="translate(10,5) scale(1.0)">
    <rect x="4" y="40" width="92" height="56" rx="4" fill="#B8956A" stroke="#9A7B54" stroke-width="1.5"/>
    <line x1="4" y1="55" x2="96" y2="55" stroke="#A07E58" stroke-width="0.7" opacity="0.5"/>
    <line x1="4" y1="70" x2="96" y2="70" stroke="#A07E58" stroke-width="0.7" opacity="0.5"/>
    <line x1="35" y1="44" x2="35" y2="92" stroke="#9A7B54" stroke-width="1" opacity="0.45"/>
    <line x1="65" y1="44" x2="65" y2="92" stroke="#9A7B54" stroke-width="1" opacity="0.45"/>
    <path d="M12 72 L12 34 Q12 27 16 23 L16 10 Q16 7 17.5 6.5 L22.5 6.5 Q24 7 24 10 L24 23 Q28 27 28 34 L28 72 Z" fill="#8B1A4A"/>
    <rect x="13.5" y="38" width="13" height="14" rx="1" fill="#C49A3C" opacity="0.55"/>
    <path d="M42 72 L42 34 Q42 27 46 23 L46 10 Q46 7 47.5 6.5 L52.5 6.5 Q54 7 54 10 L54 23 Q58 27 58 34 L58 72 Z" fill="#8B1A4A"/>
    <rect x="43.5" y="38" width="13" height="14" rx="1" fill="#C49A3C" opacity="0.55"/>
    <path d="M72 72 L72 34 Q72 27 76 23 L76 10 Q76 7 77.5 6.5 L82.5 6.5 Q84 7 84 10 L84 23 Q88 27 88 34 L88 72 Z" fill="#8B1A4A"/>
    <rect x="73.5" y="38" width="13" height="14" rx="1" fill="#C49A3C" opacity="0.55"/>
  </g>
  <text x="130" y="72" font-family="Georgia, serif" font-size="64" letter-spacing="-1">
    <tspan font-weight="700" fill="#5C0A2D">Wine</tspan><tspan font-weight="400" fill="#C49A3C">Box</tspan>
  </text>
  <text x="130" y="92.48" font-family="Georgia, serif" font-style="italic" font-size="14" letter-spacing="4" fill="#8B1A4A" opacity="0.6">YOUR CELLAR, CURATED</text>

</svg>